<?xml version="1.0" encoding="utf-8"?>
<!-- Generator: Adobe Illustrator 26.0.1, SVG Export Plug-In . SVG Version: 6.00 Build 0)  -->
<svg version="1.1" id="Layer_1" xmlns="http://www.w3.org/2000/svg" xmlns:xlink="http://www.w3.org/1999/xlink" x="0px" y="0px"
	 viewBox="0 0 395.07 167.65" enable-background="new 0 0 395.07 167.65" xml:space="preserve">
<g>
	<circle fill="#FFFFFF" cx="128.8" cy="10.85" r="8.58"/>
	<circle fill="#FFFFFF" cx="241.11" cy="10.85" r="8.58"/>
	<path fill="#FFFFFF" d="M65.39,33.7c8-6.65,16.74-9.78,25.84-5.93s7.6,13.2,7.62,21.09c0.1,33.59,0.08,67.17,0.01,100.76
		c-0.01,5.49-0.09,10.92,3.28,16.33c-6.95,0-12.94,0-19.93,0c4.29-6.1,3.82-12.46,3.81-18.76c-0.03-30.79-0.01-61.57-0.02-92.36
		C86,35.05,85.99,35.05,65.39,33.7z"/>
	<path fill="#FFFFFF" d="M25.28,34.01c9.37-6.73,17.98-10.62,27.1-6.11c8.6,4.25,6.96,13.42,7.38,21.38
		c0.69,13.04-2.34,26.32,2.36,39.2c-0.46,0.18-1.16,0.58-1.91,0.72c-11.5,2.05-18.04,0.03-14.57-14.13
		c1.76-7.18,0.32-15.13,0.31-22.73C45.92,34.74,45.68,34.5,25.28,34.01z"/>
	<path fill="#FFFFFF" d="M144.52,110.85c8.42-7.49,17.16-9.49,25.62-5.91c8.23,3.48,7.37,12.34,7.71,19.92
		c0.6,13.42-1.67,26.98,1.88,40.55c-5.78,1.72-11.74,0.74-17.8,0.63c4.49-15.57,2.81-31.27,1.82-46.73
		C163.11,109.24,153.24,111.83,144.52,110.85z"/>
	<path fill="#FFFFFF" d="M353.97,110.65c7.85-6.45,16.37-9.35,25.07-5.74c8.93,3.71,7.97,12.78,8.3,20.86
		c0.54,13.34-2.13,26.88,2.38,40.4c-6.26,0-12.61,0-18.82,0c5.3-15.97,3.72-32.18,1.78-48.02
		C371.5,108.55,361.04,112.66,353.97,110.65z"/>
	<path fill="#FFFFFF" d="M106.37,110.5c7.48-7.52,15.9-8.65,24.03-5.73c8.39,3.03,7.23,11.4,7.41,18.59
		c0.25,9.55,0.89,19.1,1.07,28.66c0.29,14.7,0.18,14.71-16.11,13.69c4.72-15.03,2.43-30.43,2.02-45.61
		C124.49,109.47,114.14,112.03,106.37,110.5z"/>
	<path fill="#FFFFFF" d="M139.41,89.06c-7.18,0-12.77,0-18.33,0c2.79-17.46,3.8-34.77-0.15-52.04c-0.39-1.68-3.15-3.59-0.42-4.79
		c4.66-2.05,9.18-5.52,14.57-4.65c3.03,0.48,1.94,3.92,1.96,6.1c0.11,13.13,0.14,26.28,0.02,39.42
		C137.01,78.23,137.27,83.28,139.41,89.06z"/>
	<path fill="#FFFFFF" d="M24.24,89.05c-7.64,0-13.64,0-18.95,0C7.4,71.44,9.42,54.04,4.47,36.68c-0.48-1.68-3.14-3.37,0.09-4.65
		c4.45-1.77,8.95-3.91,13.61-4.44c2.96-0.33,2.26,3.58,2.29,5.78c0.19,13.61,0.31,27.22,0.36,40.83
		C20.84,78.98,20.42,83.81,24.24,89.05z"/>
	<path fill="#FFFFFF" d="M332.93,166.11c2.31-17.25,2.59-34.1-0.08-51c-0.3-1.93-4.21-4.08-0.75-5.64
		c4.63-2.09,9.18-5.73,14.59-4.61c2.8,0.58,1.63,4.08,1.65,6.28c0.11,13.61,0,27.21,0.09,40.82c0.03,4.69-1.02,9.65,4.1,14.14
		C344.79,166.11,338.45,166.11,332.93,166.11z"/>
	<path fill="#FFFFFF" d="M193.05,90.57c4.97-17.76,3.19-33.73,2.15-49.46c-0.57-8.6-9.27-6.61-16.38-6.82
		c6.72-7.07,13.81-10.08,21.53-6.75c6.85,2.95,6.78,10.51,7.05,16.78c0.58,13.57,1.51,27.26,0.39,40.74
		C207.06,93.8,198.6,86.88,193.05,90.57z"/>
	<path fill="#FFFFFF" d="M177.23,89.01c-7.28,0-12.88,0-18.29,0c2.29-18.03,6.03-35.84-1.75-53.29c-0.62-1.39-2.05-2.88,0.33-3.55
		c4.96-1.38,9.23-5.37,14.68-4.51c2.41,0.39,1.54,3.3,1.57,5.1c0.09,13.57,0.18,27.16-0.01,40.73
		C173.69,78.76,174.32,83.74,177.23,89.01z"/>
	<path fill="#FFFFFF" d="M251.87,89.01c-5.9,0-11.5,0-17.11,0c1.92-18.79,5.03-37.61-2.36-56.17c17.1-7.72,16.77-7.71,17.21,11.28
		C249.94,59,247.38,74.03,251.87,89.01z"/>
	<path fill="#FFFFFF" d="M307,161.03c8.47-19.91,2.87-38.02-17.03-55.11c14.21-2.42,25.9,4.44,31.05,18.22
		C326.73,139.41,321.61,152.89,307,161.03z"/>
	<path fill="#FFFFFF" d="M237.67,159.28c4.96-22.15-0.3-40.4-20.06-53.85c17.44-1.14,28.21,6.03,32.88,20.83
		C254.8,139.91,250.56,151.49,237.67,159.28z"/>
	<path fill="#FFFFFF" d="M294.4,165.59c-18.11-0.44-26.38-5.86-30.89-19.29c-5.06-15.07-1.82-25.72,11.98-36.58
		C271.01,132.07,274.39,151.31,294.4,165.59z"/>
	<path fill="#FFFFFF" d="M212.31,164.54c-13.66-2.39-19.46-11.98-21.4-24.18c-2-12.67,1.16-23.65,13.89-30.79
		c-5.12,21.54-1.58,40.05,15.81,54.53C217.94,165.95,215.14,165.56,212.31,164.54z"/>
	<path fill="#FFFFFF" d="M212.31,164.54c2.77-0.15,5.53-0.3,8.31-0.45c1.7,0.38,3.71,1.31,0.71,2.28
		C218.37,167.33,214.91,167.1,212.31,164.54z"/>
</g>
</svg>
